<?xml version="1.0" encoding="UTF-8" standalone="no"?>
<!DOCTYPE svg PUBLIC "-//W3C//DTD SVG 1.1//EN" "http://www.w3.org/Graphics/SVG/1.1/DTD/svg11.dtd">
<svg width="100%" height="100%" viewBox="0 0 1080 1080" version="1.1" xmlns="http://www.w3.org/2000/svg" xmlns:xlink="http://www.w3.org/1999/xlink" xml:space="preserve" xmlns:serif="http://www.serif.com/" style="fill-rule:evenodd;clip-rule:evenodd;stroke-linecap:round;stroke-linejoin:round;stroke-miterlimit:1.5;">
    <g transform="matrix(1.19213,0,0,1.19213,-126.400463,-85.868056)">
        <path d="M991,309L991,741C991,860.214 894.214,957 775,957L343,957C223.786,957 127,860.214 127,741L127,309C127,189.786 223.786,93 343,93L775,93C894.214,93 991,189.786 991,309Z" style="fill:url(#_Linear1);"/>
        <clipPath id="_clip2">
            <path d="M991,309L991,741C991,860.214 894.214,957 775,957L343,957C223.786,957 127,860.214 127,741L127,309C127,189.786 223.786,93 343,93L775,93C894.214,93 991,189.786 991,309Z"/>
        </clipPath>
        <g clip-path="url(#_clip2)">
            <g transform="matrix(1,0,0,1,19,-15)">
                <rect x="108" y="108" width="108" height="108" style="fill:none;stroke:rgb(139,139,139);stroke-width:1.22px;"/>
                <g transform="matrix(1,0,0,1,108,0)">
                    <rect x="108" y="108" width="108" height="108" style="fill:none;stroke:rgb(139,139,139);stroke-width:1.22px;"/>
                </g>
                <g transform="matrix(1,0,0,1,216,0)">
                    <rect x="108" y="108" width="108" height="108" style="fill:none;stroke:rgb(139,139,139);stroke-width:1.22px;"/>
                </g>
                <g transform="matrix(1,0,0,1,324,0)">
                    <rect x="108" y="108" width="108" height="108" style="fill:none;stroke:rgb(139,139,139);stroke-width:1.22px;"/>
                </g>
                <g transform="matrix(1,0,0,1,432,0)">
                    <rect x="108" y="108" width="108" height="108" style="fill:none;stroke:rgb(139,139,139);stroke-width:1.22px;"/>
                </g>
                <g transform="matrix(1,0,0,1,540,0)">
                    <rect x="108" y="108" width="108" height="108" style="fill:none;stroke:rgb(139,139,139);stroke-width:1.22px;"/>
                </g>
                <g transform="matrix(1,0,0,1,648,0)">
                    <rect x="108" y="108" width="108" height="108" style="fill:none;stroke:rgb(139,139,139);stroke-width:1.22px;"/>
                </g>
                <g transform="matrix(1,0,0,1,756,0)">
                    <rect x="108" y="108" width="108" height="108" style="fill:none;stroke:rgb(139,139,139);stroke-width:1.22px;"/>
                </g>
                <g transform="matrix(1,0,0,1,0,108)">
                    <rect x="108" y="108" width="108" height="108" style="fill:none;stroke:rgb(139,139,139);stroke-width:1.22px;"/>
                </g>
                <g transform="matrix(1,0,0,1,108,108)">
                    <rect x="108" y="108" width="108" height="108" style="fill:none;stroke:rgb(139,139,139);stroke-width:1.22px;"/>
                </g>
                <g transform="matrix(1,0,0,1,216,108)">
                    <rect x="108" y="108" width="108" height="108" style="fill:none;stroke:rgb(139,139,139);stroke-width:1.22px;"/>
                </g>
                <g transform="matrix(1,0,0,1,324,108)">
                    <rect x="108" y="108" width="108" height="108" style="fill:none;stroke:rgb(139,139,139);stroke-width:1.22px;"/>
                </g>
                <g transform="matrix(1,0,0,1,432,108)">
                    <rect x="108" y="108" width="108" height="108" style="fill:none;stroke:rgb(139,139,139);stroke-width:1.22px;"/>
                </g>
                <g transform="matrix(1,0,0,1,540,108)">
                    <rect x="108" y="108" width="108" height="108" style="fill:none;stroke:rgb(139,139,139);stroke-width:1.22px;"/>
                </g>
                <g transform="matrix(1,0,0,1,648,108)">
                    <rect x="108" y="108" width="108" height="108" style="fill:none;stroke:rgb(139,139,139);stroke-width:1.22px;"/>
                </g>
                <g transform="matrix(1,0,0,1,756,108)">
                    <rect x="108" y="108" width="108" height="108" style="fill:none;stroke:rgb(139,139,139);stroke-width:1.22px;"/>
                </g>
                <g transform="matrix(1,0,0,1,0,216)">
                    <rect x="108" y="108" width="108" height="108" style="fill:none;stroke:rgb(139,139,139);stroke-width:1.22px;"/>
                </g>
                <g transform="matrix(1,0,0,1,108,216)">
                    <rect x="108" y="108" width="108" height="108" style="fill:none;stroke:rgb(139,139,139);stroke-width:1.22px;"/>
                </g>
                <g transform="matrix(1,0,0,1,216,216)">
                    <rect x="108" y="108" width="108" height="108" style="fill:none;stroke:rgb(139,139,139);stroke-width:1.22px;"/>
                </g>
                <g transform="matrix(1,0,0,1,324,216)">
                    <rect x="108" y="108" width="108" height="108" style="fill:none;stroke:rgb(139,139,139);stroke-width:1.22px;"/>
                </g>
                <g transform="matrix(1,0,0,1,432,216)">
                    <rect x="108" y="108" width="108" height="108" style="fill:none;stroke:rgb(139,139,139);stroke-width:1.22px;"/>
                </g>
                <g transform="matrix(1,0,0,1,540,216)">
                    <rect x="108" y="108" width="108" height="108" style="fill:none;stroke:rgb(139,139,139);stroke-width:1.22px;"/>
                </g>
                <g transform="matrix(1,0,0,1,648,216)">
                    <rect x="108" y="108" width="108" height="108" style="fill:none;stroke:rgb(139,139,139);stroke-width:1.22px;"/>
                </g>
                <g transform="matrix(1,0,0,1,756,216)">
                    <rect x="108" y="108" width="108" height="108" style="fill:none;stroke:rgb(139,139,139);stroke-width:1.22px;"/>
                </g>
                <g transform="matrix(1,0,0,1,0,324)">
                    <rect x="108" y="108" width="108" height="108" style="fill:none;stroke:rgb(139,139,139);stroke-width:1.22px;"/>
                </g>
                <g transform="matrix(1,0,0,1,108,324)">
                    <rect x="108" y="108" width="108" height="108" style="fill:none;stroke:rgb(139,139,139);stroke-width:1.22px;"/>
                </g>
                <g transform="matrix(1,0,0,1,216,324)">
                    <rect x="108" y="108" width="108" height="108" style="fill:none;stroke:rgb(139,139,139);stroke-width:1.22px;"/>
                </g>
                <g transform="matrix(1,0,0,1,324,324)">
                    <rect x="108" y="108" width="108" height="108" style="fill:none;stroke:rgb(139,139,139);stroke-width:1.22px;"/>
                </g>
                <g transform="matrix(1,0,0,1,432,324)">
                    <rect x="108" y="108" width="108" height="108" style="fill:none;stroke:rgb(139,139,139);stroke-width:1.22px;"/>
                </g>
                <g transform="matrix(1,0,0,1,540,324)">
                    <rect x="108" y="108" width="108" height="108" style="fill:none;stroke:rgb(139,139,139);stroke-width:1.22px;"/>
                </g>
                <g transform="matrix(1,0,0,1,648,324)">
                    <rect x="108" y="108" width="108" height="108" style="fill:none;stroke:rgb(139,139,139);stroke-width:1.22px;"/>
                </g>
                <g transform="matrix(1,0,0,1,756,324)">
                    <rect x="108" y="108" width="108" height="108" style="fill:none;stroke:rgb(139,139,139);stroke-width:1.22px;"/>
                </g>
                <g transform="matrix(1,0,0,1,0,432)">
                    <rect x="108" y="108" width="108" height="108" style="fill:none;stroke:rgb(139,139,139);stroke-width:1.22px;"/>
                </g>
                <g transform="matrix(1,0,0,1,108,432)">
                    <rect x="108" y="108" width="108" height="108" style="fill:none;stroke:rgb(139,139,139);stroke-width:1.22px;"/>
                </g>
                <g transform="matrix(1,0,0,1,216,432)">
                    <rect x="108" y="108" width="108" height="108" style="fill:none;stroke:rgb(139,139,139);stroke-width:1.22px;"/>
                </g>
                <g transform="matrix(1,0,0,1,324,432)">
                    <rect x="108" y="108" width="108" height="108" style="fill:none;stroke:rgb(139,139,139);stroke-width:1.22px;"/>
                </g>
                <g transform="matrix(1,0,0,1,432,432)">
                    <rect x="108" y="108" width="108" height="108" style="fill:none;stroke:rgb(139,139,139);stroke-width:1.22px;"/>
                </g>
                <g transform="matrix(1,0,0,1,540,432)">
                    <rect x="108" y="108" width="108" height="108" style="fill:none;stroke:rgb(139,139,139);stroke-width:1.22px;"/>
                </g>
                <g transform="matrix(1,0,0,1,648,432)">
                    <rect x="108" y="108" width="108" height="108" style="fill:none;stroke:rgb(139,139,139);stroke-width:1.22px;"/>
                </g>
                <g transform="matrix(1,0,0,1,756,432)">
                    <rect x="108" y="108" width="108" height="108" style="fill:none;stroke:rgb(139,139,139);stroke-width:1.22px;"/>
                </g>
                <g transform="matrix(1,0,0,1,0,540)">
                    <rect x="108" y="108" width="108" height="108" style="fill:none;stroke:rgb(139,139,139);stroke-width:1.22px;"/>
                </g>
                <g transform="matrix(1,0,0,1,108,540)">
                    <rect x="108" y="108" width="108" height="108" style="fill:none;stroke:rgb(139,139,139);stroke-width:1.22px;"/>
                </g>
                <g transform="matrix(1,0,0,1,216,540)">
                    <rect x="108" y="108" width="108" height="108" style="fill:none;stroke:rgb(139,139,139);stroke-width:1.22px;"/>
                </g>
                <g transform="matrix(1,0,0,1,324,540)">
                    <rect x="108" y="108" width="108" height="108" style="fill:none;stroke:rgb(139,139,139);stroke-width:1.22px;"/>
                </g>
                <g transform="matrix(1,0,0,1,432,540)">
                    <rect x="108" y="108" width="108" height="108" style="fill:none;stroke:rgb(139,139,139);stroke-width:1.22px;"/>
                </g>
                <g transform="matrix(1,0,0,1,540,540)">
                    <rect x="108" y="108" width="108" height="108" style="fill:none;stroke:rgb(139,139,139);stroke-width:1.22px;"/>
                </g>
                <g transform="matrix(1,0,0,1,648,540)">
                    <rect x="108" y="108" width="108" height="108" style="fill:none;stroke:rgb(139,139,139);stroke-width:1.22px;"/>
                </g>
                <g transform="matrix(1,0,0,1,756,540)">
                    <rect x="108" y="108" width="108" height="108" style="fill:none;stroke:rgb(139,139,139);stroke-width:1.22px;"/>
                </g>
                <g transform="matrix(1,0,0,1,0,648)">
                    <rect x="108" y="108" width="108" height="108" style="fill:none;stroke:rgb(139,139,139);stroke-width:1.22px;"/>
                </g>
                <g transform="matrix(1,0,0,1,108,648)">
                    <rect x="108" y="108" width="108" height="108" style="fill:none;stroke:rgb(139,139,139);stroke-width:1.22px;"/>
                </g>
                <g transform="matrix(1,0,0,1,216,648)">
                    <rect x="108" y="108" width="108" height="108" style="fill:none;stroke:rgb(139,139,139);stroke-width:1.22px;"/>
                </g>
                <g transform="matrix(1,0,0,1,324,648)">
                    <rect x="108" y="108" width="108" height="108" style="fill:none;stroke:rgb(139,139,139);stroke-width:1.22px;"/>
                </g>
                <g transform="matrix(1,0,0,1,432,648)">
                    <rect x="108" y="108" width="108" height="108" style="fill:none;stroke:rgb(139,139,139);stroke-width:1.22px;"/>
                </g>
                <g transform="matrix(1,0,0,1,540,648)">
                    <rect x="108" y="108" width="108" height="108" style="fill:none;stroke:rgb(139,139,139);stroke-width:1.22px;"/>
                </g>
                <g transform="matrix(1,0,0,1,648,648)">
                    <rect x="108" y="108" width="108" height="108" style="fill:none;stroke:rgb(139,139,139);stroke-width:1.22px;"/>
                </g>
                <g transform="matrix(1,0,0,1,756,648)">
                    <rect x="108" y="108" width="108" height="108" style="fill:none;stroke:rgb(139,139,139);stroke-width:1.22px;"/>
                </g>
                <g transform="matrix(1,0,0,1,0,756)">
                    <rect x="108" y="108" width="108" height="108" style="fill:none;stroke:rgb(139,139,139);stroke-width:1.22px;"/>
                </g>
                <g transform="matrix(1,0,0,1,108,756)">
                    <rect x="108" y="108" width="108" height="108" style="fill:none;stroke:rgb(139,139,139);stroke-width:1.22px;"/>
                </g>
                <g transform="matrix(1,0,0,1,216,756)">
                    <rect x="108" y="108" width="108" height="108" style="fill:none;stroke:rgb(139,139,139);stroke-width:1.22px;"/>
                </g>
                <g transform="matrix(1,0,0,1,324,756)">
                    <rect x="108" y="108" width="108" height="108" style="fill:none;stroke:rgb(139,139,139);stroke-width:1.22px;"/>
                </g>
                <g transform="matrix(1,0,0,1,432,756)">
                    <rect x="108" y="108" width="108" height="108" style="fill:none;stroke:rgb(139,139,139);stroke-width:1.22px;"/>
                </g>
                <g transform="matrix(1,0,0,1,540,756)">
                    <rect x="108" y="108" width="108" height="108" style="fill:none;stroke:rgb(139,139,139);stroke-width:1.22px;"/>
                </g>
                <g transform="matrix(1,0,0,1,648,756)">
                    <rect x="108" y="108" width="108" height="108" style="fill:none;stroke:rgb(139,139,139);stroke-width:1.22px;"/>
                </g>
                <g transform="matrix(1,0,0,1,756,756)">
                    <rect x="108" y="108" width="108" height="108" style="fill:none;stroke:rgb(139,139,139);stroke-width:1.22px;"/>
                </g>
            </g>
        </g>
        <path d="M991,309L991,741C991,860.214 894.214,957 775,957L343,957C223.786,957 127,860.214 127,741L127,309C127,189.786 223.786,93 343,93L775,93C894.214,93 991,189.786 991,309Z" style="fill:none;stroke:white;stroke-width:29.71px;"/>
    </g>
    <g id="key" transform="matrix(1.767956,0,0,1.767956,79.653108,124.521138)">
        <g id="topRing" transform="matrix(-1.163942,-1.163942,1.150755,-1.150755,378.294933,812.22065)">
            <path d="M298.609,196.297C343.818,196.297 380.521,232.308 380.521,276.664C380.521,321.02 343.818,357.031 298.609,357.031C253.4,357.031 216.696,321.02 216.696,276.664C216.696,232.308 253.4,196.297 298.609,196.297ZM298.609,225.772C269.981,225.772 246.738,248.576 246.738,276.664C246.738,304.752 269.981,327.556 298.609,327.556C327.237,327.556 350.479,304.752 350.479,276.664C350.479,248.576 327.237,225.772 298.609,225.772Z" style="fill:none;stroke:white;stroke-width:4.32px;"/>
        </g>
        <g id="bottomRing" transform="matrix(-1.163942,-1.163942,1.150755,-1.150755,200.854718,989.660865)">
            <path d="M298.609,196.297C343.818,196.297 380.521,232.308 380.521,276.664C380.521,321.02 343.818,357.031 298.609,357.031C253.4,357.031 216.696,321.02 216.696,276.664C216.696,232.308 253.4,196.297 298.609,196.297ZM298.609,225.772C269.981,225.772 246.738,248.576 246.738,276.664C246.738,304.752 269.981,327.556 298.609,327.556C327.237,327.556 350.479,304.752 350.479,276.664C350.479,248.576 327.237,225.772 298.609,225.772Z" style="fill:none;stroke:white;stroke-width:4.32px;"/>
        </g>
        <g id="keyShaft" transform="matrix(-1.008183,-1.008183,1.008183,-1.008183,368.926775,736.678616)">
            <path d="M397.011,180.069L397.011,213.297C397.011,214.153 396.317,214.847 395.462,214.847L105.161,214.847C104.305,214.847 103.611,214.153 103.611,213.297L103.611,180.069C103.611,179.213 104.305,178.519 105.161,178.519L395.462,178.519C396.317,178.519 397.011,179.213 397.011,180.069Z" style="fill:none;stroke:white;stroke-width:4.96px;"/>
        </g>
    </g>
    <defs>
        <linearGradient id="_Linear1" x1="0" y1="0" x2="1" y2="0" gradientUnits="userSpaceOnUse" gradientTransform="matrix(0,864,-864,0,559,93)"><stop offset="0" style="stop-color:rgb(0,141,255);stop-opacity:1"/><stop offset="1" style="stop-color:rgb(0,65,255);stop-opacity:1"/></linearGradient>
    </defs>
</svg>
